{
  "accessors": [
    {
      "bufferView": 2,
      "componentType": 5126,
      "count": 915,
      "max": [
        89.5645523071289,
        89.56452178955078,
        89.5645523071289
      ],
      "min": [
        -89.5645523071289,
        -84.54582214355469,
        -89.5645523071289
      ],
      "type": "VEC3"
    },
    {
      "bufferView": 2,
      "byteOffset": 10980,
      "componentType": 5126,
      "count": 915,
      "max": [
        0.9741002321243286,
        1.0,
        0.9741002321243286
      ],
      "min": [
        -0.9741002321243286,
        -0.9998840689659119,
        -0.9741002321243286
      ],
      "type": "VEC3"
    },
    {
      "bufferView": 1,
      "componentType": 5126,
      "count": 915,
      "max": [
        2.0,
        0.9999998807907104
      ],
      "min": [
        0.0,
        0.0013849372044205666
      ],
      "type": "VEC2"
    },
    {
      "bufferView": 0,
      "componentType": 5125,
      "count": 1908,
      "type": "SCALAR"
    }
  ],
  "asset": {
    "extras": {
      "author": "Elin (https://sketchfab.com/ElinHohler)",
      "license": "CC-BY-4.0 (http://creativecommons.org/licenses/by/4.0/)",
      "source": "https://sketchfab.com/3d-models/futuristic-city-pano-3f8ec55a41984bcf9642bb7a15154804",
      "title": "Futuristic City Pano"
    },
    "generator": "Sketchfab-14.18.0",
    "version": "2.0"
  },
  "bufferViews": [
    {
      "buffer": 0,
      "byteLength": 7632,
      "name": "floatBufferViews",
      "target": 34963
    },
    {
      "buffer": 0,
      "byteLength": 7320,
      "byteOffset": 7632,
      "byteStride": 8,
      "name": "floatBufferViews",
      "target": 34962
    },
    {
      "buffer": 0,
      "byteLength": 21960,
      "byteOffset": 14952,
      "byteStride": 12,
      "name": "floatBufferViews",
      "target": 34962
    }
  ],
  "buffers": [
    {
      "byteLength": 36912,
      "uri": "scene.bin"
    }
  ],
  "images": [
    {
      "uri": "textures/FuturisticCity_baseColor.jpeg"
    }
  ],
  "materials": [
    {
      "emissiveFactor": [
        1.0,
        1.0,
        1.0
      ],
      "emissiveTexture": {
        "index": 0
      },
      "name": "FuturisticCity",
      "pbrMetallicRoughness": {
        "baseColorTexture": {
          "index": 0
        },
        "metallicFactor": 0.0
      }
    }
  ],
  "meshes": [
    {
      "name": "Object_0",
      "primitives": [
        {
          "attributes": {
            "NORMAL": 1,
            "POSITION": 0,
            "TEXCOORD_0": 2
          },
          "indices": 3,
          "material": 0,
          "mode": 4
        }
      ]
    }
  ],
  "nodes": [
    {
      "children": [
        1
      ],
      "matrix": [
        1.0,
        0.0,
        0.0,
        0.0,
        0.0,
        2.220446049250313e-16,
        -1.0,
        0.0,
        0.0,
        1.0,
        2.220446049250313e-16,
        0.0,
        0.0,
        0.0,
        0.0,
        1.0
      ],
      "name": "Sketchfab_model"
    },
    {
      "children": [
        2
      ],
      "name": "root"
    },
    {
      "children": [
        3
      ],
      "matrix": [
        1.0,
        0.0,
        0.0,
        0.0,
        0.0,
        2.220446049250313e-16,
        1.0,
        0.0,
        0.0,
        -1.0,
        2.220446049250313e-16,
        0.0,
        0.0,
        0.0,
        0.0,
        1.0
      ],
      "name": "GLTF_SceneRootNode"
    },
    {
      "children": [
        4
      ],
      "matrix": [
        1.0,
        0.0,
        0.0,
        0.0,
        0.0,
        1.0,
        0.0,
        0.0,
        0.0,
        0.0,
        1.0,
        0.0,
        0.0,
        84.40570068359375,
        0.0,
        1.0
      ],
      "name": "Cylinder_0"
    },
    {
      "mesh": 0,
      "name": "Object_4"
    }
  ],
  "samplers": [
    {
      "magFilter": 9729,
      "minFilter": 9987,
      "wrapS": 10497,
      "wrapT": 10497
    }
  ],
  "scene": 0,
  "scenes": [
    {
      "name": "Sketchfab_Scene",
      "nodes": [
        0
      ]
    }
  ],
  "textures": [
    {
      "sampler": 0,
      "source": 0
    }
  ]
}
